<?xml version="1.0" encoding="UTF-8" standalone="no"?>
<!DOCTYPE svg PUBLIC "-//W3C//DTD SVG 1.1//EN" "http://www.w3.org/Graphics/SVG/1.1/DTD/svg11.dtd">
<svg xmlns="http://www.w3.org/2000/svg" version="1.1" viewBox="0.00 0.00 958.00 958.00">
<g stroke-width="2.00" fill="none" stroke-linecap="butt">
<path stroke="#ed9b9b" vector-effect="non-scaling-stroke" d="
  M 429.92 127.80
  C 425.76 129.12 418.01 131.59 417.50 136.24
  Q 416.91 141.55 416.55 148.46
  C 416.31 152.88 417.40 157.85 417.35 163.00
  C 416.39 262.40 417.00 361.85 416.99 461.25
  C 416.99 472.48 416.56 488.07 416.76 501.50
  Q 416.99 516.45 416.99 521.50
  Q 416.99 624.63 416.99 727.75
  Q 416.99 730.39 417.58 737.26
  C 418.35 746.05 418.06 754.93 418.25 763.74
  C 418.33 767.58 419.80 772.47 419.08 776.24
  C 418.66 778.43 418.18 780.08 418.34 782.36
  C 418.70 787.66 418.24 795.23 421.01 799.85
  Q 421.25 800.27 421.70 800.10
  L 467.82 783.64"
/>
<path stroke="#fadddb" vector-effect="non-scaling-stroke" d="
  M 467.82 783.64
  Q 476.84 782.53 482.77 780.01
  Q 491.02 776.49 497.04 775.41"
/>
<path stroke="#ed9b9b" vector-effect="non-scaling-stroke" d="
  M 497.04 775.41
  L 511.01 769.42"
/>
<path stroke="#fadddb" vector-effect="non-scaling-stroke" d="
  M 511.01 769.42
  Q 514.07 768.94 516.78 767.34
  A 4.45 4.31 22.8 0 1 518.09 766.83
  Q 520.87 766.24 523.51 765.23
  Q 527.69 763.63 528.84 763.27
  Q 546.39 757.78 563.67 751.50
  C 569.91 749.23 575.15 747.12 582.93 744.47
  Q 588.14 742.70 595.41 739.87
  Q 602.66 737.05 610.03 734.58
  C 613.65 733.37 617.75 731.56 621.72 730.32
  C 622.99 729.92 624.30 729.06 625.69 728.68
  Q 628.43 727.93 628.75 727.81
  Q 638.84 724.01 649.03 720.46
  Q 657.27 717.59 665.35 714.30
  Q 666.13 713.98 667.68 713.56
  Q 668.87 713.23 670.00 712.72
  Q 671.86 711.88 673.43 711.50
  Q 675.33 711.04 677.16 710.27
  C 678.13 709.87 679.05 708.77 680.57 708.87
  A 1.90 1.88 33.6 0 0 681.50 708.69
  C 683.85 707.55 686.34 707.07 688.68 705.97
  C 690.90 704.93 693.85 704.24 695.52 703.57
  Q 700.56 701.56 705.63 699.64
  C 707.28 699.02 709.36 698.53 711.16 697.81
  Q 713.99 696.68 715.23 696.28
  Q 720.42 694.65 725.48 692.68
  Q 730.90 690.56 735.65 688.96
  Q 739.91 687.53 744.09 685.91
  Q 749.20 683.94 752.49 682.80
  Q 765.93 678.14 779.17 672.94
  Q 780.97 672.23 783.40 671.60
  C 786.39 670.82 788.27 669.52 790.73 668.75
  Q 793.16 667.99 793.91 667.64
  C 795.97 666.71 798.10 666.31 800.10 665.39
  C 803.65 663.77 807.56 663.09 811.18 661.59
  C 819.54 658.12 828.00 655.68 836.58 652.27
  Q 841.18 650.44 845.88 648.88
  Q 856.27 645.44 866.33 641.12
  C 867.84 640.47 869.77 640.41 871.39 639.33
  Q 871.79 639.06 872.28 638.99
  C 875.05 638.59 877.44 636.94 879.51 636.22
  Q 885.67 634.09 891.84 631.98
  Q 897.23 630.13 904.04 627.40
  Q 914.42 623.22 925.02 619.58
  Q 928.12 618.51 930.26 616.18
  A 1.35 1.35 0.0 0 0 930.60 615.43
  C 930.81 613.87 931.18 612.68 930.94 611.11
  Q 929.19 599.74 929.12 587.99"
/>
<path stroke="#ed9b9b" vector-effect="non-scaling-stroke" d="
  M 929.12 587.99
  Q 928.69 584.22 928.69 580.25
  Q 928.70 556.25 928.62 532.25
  Q 928.60 525.57 927.23 520.76
  C 926.81 519.26 925.95 518.36 926.61 516.53
  A 1.01 1.00 13.0 0 0 925.77 515.20
  C 922.61 514.87 919.41 515.09 916.07 514.99
  Q 911.47 514.85 908.04 515.80
  Q 890.78 520.59 861.10 529.85
  C 836.02 537.67 811.39 547.01 786.16 554.32
  Q 768.84 559.34 751.50 564.26
  Q 729.80 570.41 673.03 589.11
  Q 669.16 590.39 663.75 591.93
  Q 659.08 593.26 654.45 594.72
  Q 609.73 608.81 564.92 622.63
  Q 540.47 630.18 515.66 637.90
  A 0.55 0.55 0.0 0 1 514.95 637.27
  Q 515.28 635.65 515.31 633.75
  Q 515.50 620.75 515.51 607.75
  Q 515.60 464.12 515.70 320.50
  C 515.72 292.41 516.90 264.34 516.75 236.25
  Q 516.53 197.20 516.12 183.36
  Q 515.75 170.81 514.65 163.12
  Q 513.90 157.91 514.95 153.28
  Q 515.94 148.86 516.01 147.13
  Q 516.30 139.27 515.25 131.84"
/>
<path stroke="#fadddb" vector-effect="non-scaling-stroke" d="
  M 515.25 131.84
  Q 514.69 129.96 513.26 129.23
  Q 507.89 126.53 502.48 123.90
  Q 494.67 120.09 486.56 116.97
  C 482.44 115.38 478.70 113.30 474.77 111.39
  C 472.46 110.27 470.24 110.31 467.74 109.95
  C 463.99 109.40 459.78 113.86 456.61 115.43
  Q 447.35 120.04 438.09 124.66
  C 435.47 125.97 432.71 126.80 429.92 127.80"
/>
<path stroke="#e77977" vector-effect="non-scaling-stroke" d="
  M 515.25 131.84
  C 503.96 127.85 492.64 123.29 481.87 118.06
  C 477.21 115.80 473.26 114.96 468.26 115.84
  C 464.31 116.53 459.30 118.55 454.82 119.80
  Q 451.42 120.74 448.41 122.15
  Q 441.10 125.56 433.58 128.46
  A 1.45 1.43 41.2 0 1 432.72 128.51
  L 429.92 127.80"
/>
<path stroke="#e77977" vector-effect="non-scaling-stroke" d="
  M 929.12 587.99
  Q 928.19 598.92 928.60 609.74
  Q 928.64 610.89 927.55 612.06
  C 924.36 615.45 922.28 617.60 917.77 619.27
  C 898.46 626.43 879.24 634.04 859.60 640.24
  Q 858.87 640.47 857.69 641.05
  C 856.31 641.74 854.00 642.27 853.08 642.60
  Q 832.86 649.85 812.70 657.25
  Q 789.02 665.95 765.27 674.49
  C 764.27 674.85 763.39 675.46 762.22 675.77
  Q 760.21 676.31 759.86 676.45
  Q 748.68 680.72 737.33 684.56
  C 736.31 684.90 735.46 685.63 734.30 685.95
  Q 732.43 686.47 732.38 686.49
  Q 706.00 696.14 681.42 704.99
  Q 670.13 709.06 658.85 713.18
  Q 637.16 721.11 600.25 734.55
  C 598.51 735.19 595.31 736.12 592.96 737.23
  C 591.91 737.72 590.94 737.71 589.87 738.11
  C 565.10 747.39 540.39 756.28 516.13 766.89
  Q 513.54 768.02 511.01 769.42"
/>
<path stroke="#e77977" vector-effect="non-scaling-stroke" d="
  M 497.04 775.41
  Q 489.14 775.01 480.51 778.27
  Q 472.20 781.40 467.82 783.64"
/>
<path stroke="#ed9b9b" vector-effect="non-scaling-stroke" d="
  M 534.35 140.13
  Q 532.65 145.15 532.01 150.63
  Q 531.61 154.07 532.26 160.84
  Q 533.28 171.52 532.16 182.19
  Q 531.47 188.77 531.52 193.35
  C 531.65 206.75 531.00 221.62 531.00 233.50
  Q 531.01 413.47 530.97 593.35"
/>
<path stroke="#fadddb" vector-effect="non-scaling-stroke" d="
  M 530.97 593.35
  Q 529.38 596.64 530.01 600.91
  C 530.43 603.68 529.71 606.44 530.38 609.10
  C 530.98 611.47 532.71 612.38 534.27 613.81
  C 536.81 616.15 539.09 616.76 542.48 616.35
  C 546.46 615.88 547.26 613.59 549.69 611.92
  Q 551.99 610.33 553.43 609.86
  Q 571.41 604.01 632.86 585.07
  Q 636.85 583.84 640.21 581.28"
/>
<path stroke="#ed9b9b" vector-effect="non-scaling-stroke" d="
  M 640.21 581.28
  Q 643.65 579.53 646.01 578.75
  Q 667.81 571.54 685.73 567.21
  Q 687.36 566.82 688.30 565.86
  A 1.10 1.08 64.1 0 0 688.60 564.97
  C 688.09 561.13 688.45 557.65 687.91 553.63
  C 687.41 550.00 688.10 545.78 688.08 542.80
  Q 688.00 528.15 688.61 513.50
  Q 688.89 506.60 687.92 482.49
  Q 687.52 472.77 687.56 462.51
  C 687.58 453.07 687.11 443.48 687.63 434.08
  C 688.13 425.11 687.95 416.24 688.01 407.27
  C 688.03 403.02 689.05 398.31 689.05 394.25
  Q 689.09 338.80 689.04 283.35
  C 689.04 276.11 689.35 265.74 689.17 256.93
  C 689.03 249.76 687.45 239.07 688.28 229.77
  Q 689.15 220.10 689.09 217.69
  Q 688.94 211.46 687.92 205.57"
/>
<path stroke="#fadddb" vector-effect="non-scaling-stroke" d="
  M 687.92 205.57
  Q 686.75 203.51 685.07 202.89
  Q 683.50 202.31 683.44 202.27
  Q 674.77 197.92 670.74 196.67
  Q 666.24 195.26 663.66 193.70
  Q 663.24 193.45 662.75 193.41
  Q 662.36 193.38 662.24 193.29
  Q 659.73 191.46 658.49 191.19
  Q 655.20 190.49 652.28 188.86
  Q 651.25 188.29 650.06 188.09
  C 647.95 187.75 646.86 186.50 644.63 186.12
  Q 643.82 185.98 643.49 185.13
  Q 643.31 184.65 642.81 184.52
  L 640.90 184.01
  Q 640.44 183.88 640.07 183.59
  C 639.29 182.98 638.13 182.86 637.52 182.59
  Q 635.46 181.69 633.42 180.72
  C 632.50 180.28 631.94 179.42 630.84 179.08
  Q 629.24 178.58 629.21 178.57
  Q 625.75 177.06 622.27 175.62
  Q 617.62 173.71 613.04 171.59
  C 611.92 171.07 610.44 170.77 609.22 170.04
  Q 607.46 168.99 606.54 168.69
  Q 602.71 167.43 598.91 166.10
  Q 598.47 165.95 598.27 165.52
  Q 598.12 165.19 597.74 165.13
  Q 595.89 164.82 594.75 163.60
  A 1.47 1.39 -14.7 0 0 593.98 163.18
  Q 590.60 162.55 587.79 160.60
  A 1.28 1.25 -30.1 0 0 586.97 160.39
  Q 585.27 160.54 584.01 159.37
  Q 583.62 159.01 583.11 159.13
  Q 582.66 159.23 582.47 158.79
  Q 579.44 157.34 576.20 156.47
  C 574.36 155.97 573.01 154.88 571.24 154.15
  Q 567.93 152.77 564.64 151.37
  Q 563.71 150.97 561.24 149.78
  Q 558.09 148.27 554.93 146.80
  C 553.28 146.02 550.38 145.18 548.24 143.64
  A 1.47 1.44 -29.1 0 0 547.25 143.37
  Q 544.90 143.60 543.26 141.83
  A 1.72 1.67 -11.4 0 0 542.53 141.36
  Q 539.55 140.36 536.77 138.85
  Q 535.88 138.37 534.35 140.13"
/>
<path stroke="#e77977" vector-effect="non-scaling-stroke" d="
  M 687.92 205.57
  Q 685.19 205.47 683.76 204.86
  Q 617.44 176.73 551.31 148.15
  C 549.46 147.36 547.86 146.27 545.99 145.62
  Q 539.82 143.49 534.35 140.13"
/>
<path stroke="#e77977" vector-effect="non-scaling-stroke" d="
  M 640.21 581.28
  Q 596.06 595.01 552.10 608.87
  C 546.77 610.55 539.39 611.42 535.17 606.70
  C 531.03 602.08 530.29 599.64 530.97 593.35"
/>
<path stroke="#fadddb" vector-effect="non-scaling-stroke" d="
  M 379.48 149.37
  Q 368.43 154.03 357.12 158.28
  Q 354.46 159.28 350.29 160.40
  C 343.87 162.13 338.26 165.65 332.49 167.59
  C 330.77 168.17 329.40 169.33 327.73 169.84
  Q 324.31 170.90 321.35 172.91
  Q 320.94 173.19 320.43 173.22
  Q 319.15 173.30 318.75 173.49
  Q 314.21 175.69 309.49 177.50
  C 308.94 177.71 308.79 178.05 308.18 178.27
  Q 301.02 180.87 294.12 184.10
  Q 293.50 184.39 293.05 184.44
  Q 292.57 184.49 292.15 184.73
  C 288.32 186.92 284.31 188.23 280.36 190.09
  C 277.66 191.36 274.79 192.35 272.10 193.59
  C 270.21 194.45 268.17 195.01 266.45 196.18
  C 265.33 196.94 263.35 197.23 262.46 197.63
  Q 250.49 203.02 238.43 208.18
  Q 238.07 208.34 237.68 208.33
  Q 237.30 208.33 237.00 208.50
  Q 233.47 210.51 229.85 212.32
  Q 228.75 212.87 228.40 214.99"
/>
<path stroke="#ed9b9b" vector-effect="non-scaling-stroke" d="
  M 228.40 214.99
  Q 226.15 217.81 226.88 222.78"
/>
<path stroke="#fadddb" vector-effect="non-scaling-stroke" d="
  M 226.88 222.78
  Q 225.53 226.67 226.07 231.12"
/>
<path stroke="#ed9b9b" vector-effect="non-scaling-stroke" d="
  M 226.07 231.12
  C 226.22 235.33 226.95 239.55 226.87 243.64
  Q 226.35 272.45 226.86 301.25
  C 226.98 307.83 226.30 315.10 226.28 320.92
  C 226.09 392.47 227.28 458.67 226.90 527.50
  Q 226.86 536.01 227.09 547.51
  Q 227.78 581.60 226.36 615.68
  C 226.12 621.60 226.98 627.54 227.01 633.59
  Q 227.07 651.73 227.71 669.86
  Q 227.76 671.19 227.92 686.65
  Q 228.00 695.17 228.95 703.44"
/>
<path stroke="#fadddb" vector-effect="non-scaling-stroke" d="
  M 228.95 703.44
  Q 232.12 708.11 235.20 709.81
  Q 246.29 715.97 259.64 722.09
  C 261.07 722.75 262.78 722.55 264.28 723.58
  Q 266.70 725.24 266.77 725.28
  Q 268.62 726.18 270.52 726.96
  Q 271.05 727.18 271.49 727.57
  Q 272.79 728.71 274.53 728.89
  A 0.82 0.75 -19.2 0 1 274.93 729.06
  Q 276.82 730.63 280.02 731.84
  Q 284.43 733.51 292.20 738.19
  Q 292.59 738.43 293.36 738.65
  C 294.41 738.94 295.34 739.87 296.07 740.22
  Q 300.28 742.25 302.75 743.57
  A 45.11 15.24 35.2 0 0 308.02 746.21
  Q 315.36 749.63 323.42 753.42
  Q 323.84 753.62 324.21 754.00
  C 324.89 754.70 326.58 755.17 327.99 755.89
  Q 334.31 759.09 340.63 762.31
  C 341.89 762.94 343.53 763.21 344.85 764.19
  Q 345.25 764.49 345.75 764.57
  Q 346.52 764.69 347.21 765.07
  C 349.72 766.44 352.24 768.14 354.66 769.36
  Q 365.41 774.78 376.24 780.03
  C 378.65 781.20 380.63 783.60 383.02 784.97
  C 386.08 786.73 389.19 787.27 394.00 788.28
  Q 395.34 788.56 396.79 789.77
  Q 397.26 790.16 397.64 789.68
  L 399.17 787.72"
/>
<path stroke="#ed9b9b" vector-effect="non-scaling-stroke" d="
  M 399.17 787.72
  Q 400.62 778.93 400.47 769.76
  C 400.23 754.51 400.46 739.25 400.47 724.00
  Q 400.60 481.50 400.64 239.00
  Q 400.65 216.32 400.21 193.65
  C 400.02 183.56 397.37 173.40 398.90 163.38
  Q 399.70 158.19 399.66 155.45
  Q 399.58 149.36 399.20 143.30
  Q 399.09 141.66 397.49 142.01
  Q 387.95 144.10 379.48 149.37"
/>
<path stroke="#e77977" vector-effect="non-scaling-stroke" d="
  M 399.17 787.72
  C 397.16 788.23 397.04 786.42 395.53 785.65
  Q 390.95 783.29 386.06 781.70
  Q 382.00 780.37 380.03 778.84
  Q 377.55 776.91 374.74 775.51
  Q 301.95 739.29 228.95 703.44"
/>
<path stroke="#e77977" vector-effect="non-scaling-stroke" d="
  M 226.07 231.12
  L 226.88 222.78"
/>
<path stroke="#e77977" vector-effect="non-scaling-stroke" d="
  M 228.40 214.99
  Q 234.18 213.47 239.49 211.18
  Q 307.29 181.95 375.38 153.38
  Q 379.43 151.68 379.48 149.37"
/>
<path stroke="#ed9b9b" vector-effect="non-scaling-stroke" d="
  M 705.88 212.66
  Q 704.49 214.51 704.31 217.00
  C 702.88 237.43 705.49 257.57 705.14 277.99
  C 703.82 354.37 704.69 430.88 705.76 507.25
  Q 705.89 516.79 704.67 539.98
  C 704.37 545.55 704.73 554.01 711.25 556.23
  C 714.95 557.49 717.33 557.58 721.27 556.37
  Q 742.02 549.95 762.81 543.63
  C 771.36 541.03 779.47 537.77 787.74 534.56
  C 790.09 533.64 791.05 532.18 792.39 530.22
  Q 792.67 529.80 792.70 529.29
  C 792.86 526.45 794.49 523.85 795.14 521.97
  C 801.14 504.61 808.09 487.61 813.99 470.23
  C 814.77 467.95 817.91 465.84 818.24 462.75
  C 818.55 459.84 819.26 450.56 816.91 448.01
  Q 814.37 445.27 813.69 443.50
  C 805.89 423.42 792.87 406.58 782.49 389.23
  C 780.86 386.51 778.67 383.80 776.80 381.04
  Q 776.50 380.61 776.84 380.20
  L 810.21 340.60"
/>
<path stroke="#fadddb" vector-effect="non-scaling-stroke" d="
  M 810.21 340.60
  Q 812.14 339.29 812.72 336.77"
/>
<path stroke="#ed9b9b" vector-effect="non-scaling-stroke" d="
  M 812.72 336.77
  C 815.97 331.19 812.22 328.54 811.57 323.56
  C 811.10 319.94 810.81 316.41 809.69 312.89
  C 805.92 301.05 804.07 292.69 801.78 282.36
  C 799.91 273.93 796.69 265.65 794.12 257.25
  Q 793.37 254.81 788.22 248.29"
/>
<path stroke="#fadddb" vector-effect="non-scaling-stroke" d="
  M 788.22 248.29
  Q 782.13 243.79 773.36 240.15
  Q 766.31 237.23 757.24 232.69
  C 755.46 231.80 753.21 231.31 751.23 230.14
  Q 747.95 228.21 747.00 227.80
  Q 739.64 224.68 732.18 221.80
  C 731.21 221.42 730.12 221.27 729.26 220.90
  Q 722.42 217.94 715.68 214.76
  C 714.62 214.26 713.72 214.59 712.77 213.58
  Q 712.46 213.24 711.99 213.25
  Q 709.19 213.32 707.08 211.66
  Q 706.69 211.36 706.30 211.65
  Q 705.66 212.13 705.88 212.66"
/>
<path stroke="#e77977" vector-effect="non-scaling-stroke" d="
  M 788.22 248.29
  Q 786.53 248.00 784.81 247.73
  Q 783.05 247.45 781.48 246.80
  Q 744.52 231.46 707.87 215.39
  Q 706.44 214.76 705.88 212.66"
/>
<path stroke="#e77977" vector-effect="non-scaling-stroke" d="
  M 812.72 336.77
  Q 810.96 338.55 810.21 340.60"
/>
<path stroke="#ed9b9b" vector-effect="non-scaling-stroke" d="
  M 137.82 253.99
  Q 135.84 262.16 136.01 267.25
  C 137.07 299.01 137.03 331.14 138.00 362.51
  C 138.40 375.57 137.98 390.31 138.34 404.25
  Q 138.38 405.99 137.70 407.86
  Q 137.52 408.34 137.06 408.57
  Q 128.75 412.71 119.72 414.85
  A 0.42 0.42 0.0 0 1 119.20 414.44
  Q 118.79 356.25 118.73 297.99
  C 118.72 289.04 119.50 275.76 118.89 265.04
  Q 118.77 262.83 116.99 260.76
  Q 116.56 260.27 116.37 260.90
  Q 116.33 261.03 116.27 261.15
  Q 116.10 261.50 116.18 261.88
  L 116.43 263.17"
/>
<path stroke="#fadddb" vector-effect="non-scaling-stroke" d="
  M 116.43 263.17
  Q 112.00 261.99 105.50 264.17
  Q 96.56 267.17 87.78 270.62
  Q 81.17 273.23 75.22 277.28"
/>
<path stroke="#ed9b9b" vector-effect="non-scaling-stroke" d="
  M 75.22 277.28
  C 67.48 280.93 56.96 284.67 53.66 293.26
  C 51.42 299.12 51.00 304.63 51.01 311.66
  Q 51.11 452.29 51.02 592.92
  C 51.02 598.72 49.32 609.70 53.08 614.41
  Q 58.69 621.44 69.72 626.48
  Q 81.46 631.84 92.51 638.46
  C 98.96 642.32 105.36 644.51 112.17 647.16
  Q 112.69 647.36 112.91 647.87
  L 113.34 648.83
  Q 113.61 649.41 114.09 648.98
  C 116.82 646.53 117.69 640.45 117.73 636.94
  Q 117.86 623.72 117.79 610.50
  C 117.68 589.00 118.36 567.49 118.91 546.00
  C 119.16 536.09 117.84 524.73 118.26 513.85
  C 118.29 513.01 117.98 512.33 117.71 511.55
  Q 117.55 511.11 118.01 511.15
  Q 124.79 511.71 128.84 514.38
  C 130.93 515.76 136.52 518.71 136.48 521.50
  Q 135.89 558.57 137.51 595.61
  C 138.06 608.22 138.21 619.33 138.33 631.21
  C 138.41 638.29 137.86 647.29 138.07 655.37
  C 138.11 656.85 138.56 657.87 139.08 659.24"
/>
<path stroke="#fadddb" vector-effect="non-scaling-stroke" d="
  M 139.08 659.24
  Q 139.33 660.23 139.93 661.28
  C 140.98 663.11 144.72 664.77 146.57 665.79
  Q 164.31 675.65 182.63 684.41
  C 183.85 684.99 184.99 686.01 186.43 686.56
  C 190.04 687.95 193.29 689.96 196.75 691.67
  Q 197.15 691.87 197.58 691.87
  Q 198.18 691.89 198.50 692.07
  C 200.61 693.27 203.59 693.81 206.38 695.56
  Q 206.84 695.84 207.26 695.51
  Q 208.43 694.55 208.75 693.21"
/>
<path stroke="#ed9b9b" vector-effect="non-scaling-stroke" d="
  M 208.75 693.21
  C 209.69 683.36 209.36 673.86 209.50 664.25
  C 209.92 634.59 210.62 604.91 210.46 575.25
  C 210.20 528.69 210.81 482.06 210.14 435.51
  Q 209.12 364.40 209.08 293.29
  C 209.07 287.49 208.78 281.87 208.49 276.16
  C 208.17 269.96 208.98 263.92 208.79 257.50
  C 208.49 247.14 209.29 236.64 209.47 226.25
  Q 209.49 224.78 208.74 223.27"
/>
<path stroke="#fadddb" vector-effect="non-scaling-stroke" d="
  M 208.74 223.27
  Q 208.64 222.28 207.94 221.84
  Q 207.47 221.55 207.05 221.92
  Q 205.88 222.97 205.25 223.03
  Q 198.60 223.65 196.25 224.51
  C 193.59 225.48 190.52 228.35 187.39 229.73
  Q 185.79 230.43 184.16 231.09
  C 183.28 231.45 182.59 232.14 181.57 232.44
  Q 179.89 232.93 179.53 233.10
  C 172.78 236.34 166.18 238.86 159.00 242.12
  Q 153.98 244.39 145.75 247.61
  Q 139.45 250.08 137.82 253.99"
/>
<path stroke="#e77977" vector-effect="non-scaling-stroke" d="
  M 208.74 223.27
  Q 208.41 223.18 208.08 223.22
  A 1.02 1.01 9.3 0 0 207.30 223.77
  Q 206.73 224.86 205.87 225.16
  C 201.71 226.60 197.92 228.00 193.87 230.17
  Q 189.06 232.76 186.38 233.89
  Q 167.01 242.04 147.76 250.47
  Q 143.69 252.26 137.82 253.99"
/>
<path stroke="#e77977" vector-effect="non-scaling-stroke" d="
  M 208.75 693.21
  L 139.08 659.24"
/>
<path stroke="#e77977" vector-effect="non-scaling-stroke" d="
  M 75.22 277.28
  Q 88.60 271.08 102.32 266.31
  Q 105.38 265.25 109.33 264.56
  Q 112.83 263.95 116.43 263.17"
/>
<path stroke="#ed9b9b" vector-effect="non-scaling-stroke" d="
  M 845.25 272.69
  Q 840.42 274.52 837.81 279.18"
/>
<path stroke="#fadddb" vector-effect="non-scaling-stroke" d="
  M 837.81 279.18
  Q 836.12 280.30 836.28 282.25"
/>
<path stroke="#ed9b9b" vector-effect="non-scaling-stroke" d="
  M 836.28 282.25
  Q 835.99 282.84 835.76 283.54
  Q 833.12 291.78 830.64 300.07
  C 828.47 307.36 825.16 315.06 822.93 322.49
  Q 815.69 346.58 809.21 374.28
  C 808.47 377.41 809.17 379.99 809.27 383.09
  C 809.45 388.62 811.13 393.05 815.34 396.41
  C 827.81 406.39 839.04 415.59 852.13 426.97
  Q 868.24 440.97 885.21 453.68
  A 1.23 1.22 -65.1 0 1 885.67 454.95
  Q 882.15 469.55 878.64 483.76
  C 878.21 485.48 878.12 486.97 878.12 488.70
  Q 878.12 489.24 877.62 489.42
  Q 872.72 491.14 867.50 491.14
  C 863.50 491.14 859.96 488.76 856.86 486.92
  C 855.63 486.18 854.35 486.20 853.02 485.60
  Q 852.57 485.40 852.61 484.91
  C 853.11 479.88 853.65 474.15 851.27 469.94
  Q 849.95 467.61 847.08 466.36
  Q 839.16 462.89 831.45 465.19"
/>
<path stroke="#fadddb" vector-effect="non-scaling-stroke" d="
  M 831.45 465.19
  Q 828.37 465.70 827.36 467.11
  Q 822.91 473.39 819.76 482.01
  Q 819.16 483.65 816.84 488.71
  Q 814.19 494.45 814.37 500.93
  C 814.46 504.46 817.49 507.97 819.14 510.83
  C 819.75 511.88 820.79 512.95 821.74 513.42
  Q 829.34 517.19 836.65 521.47
  C 840.34 523.63 843.72 524.06 847.62 523.12
  Q 852.01 522.06 864.72 518.09
  Q 865.82 517.74 867.32 517.57
  Q 868.65 517.42 869.95 517.13
  Q 871.78 516.72 873.63 516.49
  C 880.69 515.61 888.21 512.94 894.80 510.32
  Q 897.89 509.09 900.84 508.61
  C 905.24 507.88 915.58 506.97 916.87 501.54
  Q 917.11 500.54 917.39 499.57
  C 918.05 497.27 919.48 495.04 920.35 492.66"
/>
<path stroke="#ed9b9b" vector-effect="non-scaling-stroke" d="
  M 920.35 492.66
  C 923.32 483.24 925.70 473.39 928.73 464.26
  Q 931.89 454.75 932.95 450.75
  C 933.77 447.68 933.67 443.34 934.46 439.52
  C 935.60 434.08 936.19 428.71 929.99 427.00
  Q 927.52 426.32 926.25 425.48
  Q 888.48 400.15 852.20 373.75
  Q 851.19 373.01 851.41 371.78
  Q 853.96 357.60 857.96 343.75
  Q 858.40 342.23 859.98 342.23
  L 874.73 342.22
  A 0.31 0.30 84.2 0 1 875.03 342.47
  C 876.48 350.53 878.31 358.34 879.62 366.60
  C 880.35 371.20 881.41 382.02 887.26 382.65
  Q 889.51 382.90 891.73 383.35
  Q 901.49 385.37 911.25 383.20
  C 914.71 382.44 918.42 385.90 920.74 380.99
  C 921.65 379.06 922.48 374.56 922.18 372.24
  C 919.89 354.68 918.57 337.08 916.58 319.50
  C 915.95 313.99 915.24 306.79 911.58 303.33
  Q 909.99 301.82 908.84 300.81"
/>
<path stroke="#fadddb" vector-effect="non-scaling-stroke" d="
  M 908.84 300.81
  Q 902.92 296.05 895.94 292.99
  Q 887.03 289.09 886.90 289.03
  Q 881.37 286.40 875.69 284.13
  C 864.96 279.84 856.73 276.34 847.30 272.32
  Q 846.84 272.12 846.36 272.29
  L 845.25 272.69"
/>
<path stroke="#e77977" vector-effect="non-scaling-stroke" d="
  M 908.84 300.81
  Q 881.44 290.53 855.52 278.64
  Q 850.99 276.57 847.29 273.24
  Q 846.60 272.62 845.25 272.69"
/>
<path stroke="#e77977" vector-effect="non-scaling-stroke" d="
  M 920.35 492.66
  Q 918.37 495.37 917.01 498.39
  Q 915.57 501.58 914.85 502.49
  C 912.18 505.82 905.25 506.30 901.27 507.17
  C 891.44 509.32 882.24 513.08 872.30 515.08
  Q 860.80 517.39 849.62 520.93
  C 847.46 521.62 843.67 521.99 842.00 521.47
  Q 835.97 519.62 825.93 513.85
  Q 824.07 512.78 819.05 508.12
  Q 818.04 507.17 817.36 505.81
  C 815.88 502.87 814.80 501.13 815.70 497.25
  C 816.24 494.90 816.61 492.56 817.51 490.32
  Q 820.51 482.87 823.38 475.35
  Q 825.44 469.92 831.45 465.19"
/>
<path stroke="#e77977" vector-effect="non-scaling-stroke" d="
  M 836.28 282.25
  Q 837.36 280.83 837.81 279.18"
/>
<path stroke="#e77977" vector-effect="non-scaling-stroke" d="
  M 422.1988 779.5069
  A 1.53 0.46 59.4 0 0 421.8159 777.9558
  A 1.53 0.46 59.4 0 0 420.6412 776.8731
  A 1.53 0.46 59.4 0 0 421.0241 778.4242
  A 1.53 0.46 59.4 0 0 422.1988 779.5069"
/>
<path stroke="#ed9b9b" vector-effect="non-scaling-stroke" d="
  M 596.27 239.44
  C 596.81 241.11 597.25 242.46 597.25 244.24
  Q 597.25 379.37 597.23 514.50
  Q 597.23 527.57 596.91 540.45
  Q 596.90 540.81 597.26 540.72
  Q 615.50 536.21 633.28 530.08
  A 1.45 1.45 0.0 0 0 634.21 528.34
  C 632.26 521.01 632.88 512.99 632.88 505.44
  Q 632.90 381.75 632.89 258.06
  C 632.89 256.50 633.25 255.29 634.06 254.07
  A 0.84 0.84 0.0 0 0 633.78 252.87
  Q 628.38 249.75 622.55 247.66
  Q 609.63 243.03 596.48 239.23
  A 0.17 0.17 0.0 0 0 596.27 239.44"
/>
<path stroke="#ed9b9b" vector-effect="non-scaling-stroke" d="
  M 295.44 235.42
  C 291.37 237.05 283.58 240.27 280.89 243.69
  Q 279.89 244.97 279.89 247.10
  Q 279.98 453.97 279.90 660.65
  A 0.83 0.83 0.0 0 0 280.43 661.44
  L 333.80 682.23
  A 0.24 0.24 0.0 0 0 334.13 681.96
  Q 333.74 680.03 333.74 678.00
  Q 333.57 451.44 333.53 224.89
  C 333.53 223.39 334.14 221.98 334.27 220.44
  Q 334.33 219.80 333.76 220.08
  Q 321.57 225.98 318.00 227.24
  Q 299.98 233.60 295.44 235.42"
/>
<path stroke="#ed9b9b" vector-effect="non-scaling-stroke" d="
  M 766.38 318.60
  C 758.79 312.41 751.89 305.52 744.26 299.39
  C 742.93 298.31 741.80 296.85 740.46 295.64
  Q 740.07 295.28 740.04 295.81
  Q 738.82 318.71 740.71 341.54
  C 740.82 342.88 740.68 344.04 740.51 345.37
  Q 740.47 345.71 740.73 345.49
  L 770.09 321.97
  A 0.60 0.60 0.0 0 0 769.98 320.96
  Q 768.16 320.05 766.38 318.60"
/>
<path stroke="#ed9b9b" vector-effect="non-scaling-stroke" d="
  M 754.63 477.62
  Q 755.43 482.11 755.57 488.22
  Q 755.58 488.67 755.92 488.36
  Q 759.39 485.20 769.17 476.67
  C 776.43 470.33 783.38 462.04 791.44 454.54
  A 0.24 0.24 0.0 0 0 791.31 454.12
  Q 789.67 453.90 787.99 453.46
  Q 771.97 449.30 755.94 445.19
  Q 753.07 444.45 750.36 443.28
  Q 749.78 443.03 749.84 443.66
  Q 751.37 459.33 754.63 477.62"
/>
</g>
<path fill="#ffffff" d="
  M 0.00 0.00
  L 958.00 0.00
  L 958.00 958.00
  L 0.00 958.00
  L 0.00 0.00
  Z
  M 429.92 127.80
  C 425.76 129.12 418.01 131.59 417.50 136.24
  Q 416.91 141.55 416.55 148.46
  C 416.31 152.88 417.40 157.85 417.35 163.00
  C 416.39 262.40 417.00 361.85 416.99 461.25
  C 416.99 472.48 416.56 488.07 416.76 501.50
  Q 416.99 516.45 416.99 521.50
  Q 416.99 624.63 416.99 727.75
  Q 416.99 730.39 417.58 737.26
  C 418.35 746.05 418.06 754.93 418.25 763.74
  C 418.33 767.58 419.80 772.47 419.08 776.24
  C 418.66 778.43 418.18 780.08 418.34 782.36
  C 418.70 787.66 418.24 795.23 421.01 799.85
  Q 421.25 800.27 421.70 800.10
  L 467.82 783.64
  Q 476.84 782.53 482.77 780.01
  Q 491.02 776.49 497.04 775.41
  L 511.01 769.42
  Q 514.07 768.94 516.78 767.34
  A 4.45 4.31 22.8 0 1 518.09 766.83
  Q 520.87 766.24 523.51 765.23
  Q 527.69 763.63 528.84 763.27
  Q 546.39 757.78 563.67 751.50
  C 569.91 749.23 575.15 747.12 582.93 744.47
  Q 588.14 742.70 595.41 739.87
  Q 602.66 737.05 610.03 734.58
  C 613.65 733.37 617.75 731.56 621.72 730.32
  C 622.99 729.92 624.30 729.06 625.69 728.68
  Q 628.43 727.93 628.75 727.81
  Q 638.84 724.01 649.03 720.46
  Q 657.27 717.59 665.35 714.30
  Q 666.13 713.98 667.68 713.56
  Q 668.87 713.23 670.00 712.72
  Q 671.86 711.88 673.43 711.50
  Q 675.33 711.04 677.16 710.27
  C 678.13 709.87 679.05 708.77 680.57 708.87
  A 1.90 1.88 33.6 0 0 681.50 708.69
  C 683.85 707.55 686.34 707.07 688.68 705.97
  C 690.90 704.93 693.85 704.24 695.52 703.57
  Q 700.56 701.56 705.63 699.64
  C 707.28 699.02 709.36 698.53 711.16 697.81
  Q 713.99 696.68 715.23 696.28
  Q 720.42 694.65 725.48 692.68
  Q 730.90 690.56 735.65 688.96
  Q 739.91 687.53 744.09 685.91
  Q 749.20 683.94 752.49 682.80
  Q 765.93 678.14 779.17 672.94
  Q 780.97 672.23 783.40 671.60
  C 786.39 670.82 788.27 669.52 790.73 668.75
  Q 793.16 667.99 793.91 667.64
  C 795.97 666.71 798.10 666.31 800.10 665.39
  C 803.65 663.77 807.56 663.09 811.18 661.59
  C 819.54 658.12 828.00 655.68 836.58 652.27
  Q 841.18 650.44 845.88 648.88
  Q 856.27 645.44 866.33 641.12
  C 867.84 640.47 869.77 640.41 871.39 639.33
  Q 871.79 639.06 872.28 638.99
  C 875.05 638.59 877.44 636.94 879.51 636.22
  Q 885.67 634.09 891.84 631.98
  Q 897.23 630.13 904.04 627.40
  Q 914.42 623.22 925.02 619.58
  Q 928.12 618.51 930.26 616.18
  A 1.35 1.35 0.0 0 0 930.60 615.43
  C 930.81 613.87 931.18 612.68 930.94 611.11
  Q 929.19 599.74 929.12 587.99
  Q 928.69 584.22 928.69 580.25
  Q 928.70 556.25 928.62 532.25
  Q 928.60 525.57 927.23 520.76
  C 926.81 519.26 925.95 518.36 926.61 516.53
  A 1.01 1.00 13.0 0 0 925.77 515.20
  C 922.61 514.87 919.41 515.09 916.07 514.99
  Q 911.47 514.85 908.04 515.80
  Q 890.78 520.59 861.10 529.85
  C 836.02 537.67 811.39 547.01 786.16 554.32
  Q 768.84 559.34 751.50 564.26
  Q 729.80 570.41 673.03 589.11
  Q 669.16 590.39 663.75 591.93
  Q 659.08 593.26 654.45 594.72
  Q 609.73 608.81 564.92 622.63
  Q 540.47 630.18 515.66 637.90
  A 0.55 0.55 0.0 0 1 514.95 637.27
  Q 515.28 635.65 515.31 633.75
  Q 515.50 620.75 515.51 607.75
  Q 515.60 464.12 515.70 320.50
  C 515.72 292.41 516.90 264.34 516.75 236.25
  Q 516.53 197.20 516.12 183.36
  Q 515.75 170.81 514.65 163.12
  Q 513.90 157.91 514.95 153.28
  Q 515.94 148.86 516.01 147.13
  Q 516.30 139.27 515.25 131.84
  Q 514.69 129.96 513.26 129.23
  Q 507.89 126.53 502.48 123.90
  Q 494.67 120.09 486.56 116.97
  C 482.44 115.38 478.70 113.30 474.77 111.39
  C 472.46 110.27 470.24 110.31 467.74 109.95
  C 463.99 109.40 459.78 113.86 456.61 115.43
  Q 447.35 120.04 438.09 124.66
  C 435.47 125.97 432.71 126.80 429.92 127.80
  Z
  M 534.35 140.13
  Q 532.65 145.15 532.01 150.63
  Q 531.61 154.07 532.26 160.84
  Q 533.28 171.52 532.16 182.19
  Q 531.47 188.77 531.52 193.35
  C 531.65 206.75 531.00 221.62 531.00 233.50
  Q 531.01 413.47 530.97 593.35
  Q 529.38 596.64 530.01 600.91
  C 530.43 603.68 529.71 606.44 530.38 609.10
  C 530.98 611.47 532.71 612.38 534.27 613.81
  C 536.81 616.15 539.09 616.76 542.48 616.35
  C 546.46 615.88 547.26 613.59 549.69 611.92
  Q 551.99 610.33 553.43 609.86
  Q 571.41 604.01 632.86 585.07
  Q 636.85 583.84 640.21 581.28
  Q 643.65 579.53 646.01 578.75
  Q 667.81 571.54 685.73 567.21
  Q 687.36 566.82 688.30 565.86
  A 1.10 1.08 64.1 0 0 688.60 564.97
  C 688.09 561.13 688.45 557.65 687.91 553.63
  C 687.41 550.00 688.10 545.78 688.08 542.80
  Q 688.00 528.15 688.61 513.50
  Q 688.89 506.60 687.92 482.49
  Q 687.52 472.77 687.56 462.51
  C 687.58 453.07 687.11 443.48 687.63 434.08
  C 688.13 425.11 687.95 416.24 688.01 407.27
  C 688.03 403.02 689.05 398.31 689.05 394.25
  Q 689.09 338.80 689.04 283.35
  C 689.04 276.11 689.35 265.74 689.17 256.93
  C 689.03 249.76 687.45 239.07 688.28 229.77
  Q 689.15 220.10 689.09 217.69
  Q 688.94 211.46 687.92 205.57
  Q 686.75 203.51 685.07 202.89
  Q 683.50 202.31 683.44 202.27
  Q 674.77 197.92 670.74 196.67
  Q 666.24 195.26 663.66 193.70
  Q 663.24 193.45 662.75 193.41
  Q 662.36 193.38 662.24 193.29
  Q 659.73 191.46 658.49 191.19
  Q 655.20 190.49 652.28 188.86
  Q 651.25 188.29 650.06 188.09
  C 647.95 187.75 646.86 186.50 644.63 186.12
  Q 643.82 185.98 643.49 185.13
  Q 643.31 184.65 642.81 184.52
  L 640.90 184.01
  Q 640.44 183.88 640.07 183.59
  C 639.29 182.98 638.13 182.86 637.52 182.59
  Q 635.46 181.69 633.42 180.72
  C 632.50 180.28 631.94 179.42 630.84 179.08
  Q 629.24 178.58 629.21 178.57
  Q 625.75 177.06 622.27 175.62
  Q 617.62 173.71 613.04 171.59
  C 611.92 171.07 610.44 170.77 609.22 170.04
  Q 607.46 168.99 606.54 168.69
  Q 602.71 167.43 598.91 166.10
  Q 598.47 165.95 598.27 165.52
  Q 598.12 165.19 597.74 165.13
  Q 595.89 164.82 594.75 163.60
  A 1.47 1.39 -14.7 0 0 593.98 163.18
  Q 590.60 162.55 587.79 160.60
  A 1.28 1.25 -30.1 0 0 586.97 160.39
  Q 585.27 160.54 584.01 159.37
  Q 583.62 159.01 583.11 159.13
  Q 582.66 159.23 582.47 158.79
  Q 579.44 157.34 576.20 156.47
  C 574.36 155.97 573.01 154.88 571.24 154.15
  Q 567.93 152.77 564.64 151.37
  Q 563.71 150.97 561.24 149.78
  Q 558.09 148.27 554.93 146.80
  C 553.28 146.02 550.38 145.18 548.24 143.64
  A 1.47 1.44 -29.1 0 0 547.25 143.37
  Q 544.90 143.60 543.26 141.83
  A 1.72 1.67 -11.4 0 0 542.53 141.36
  Q 539.55 140.36 536.77 138.85
  Q 535.88 138.37 534.35 140.13
  Z
  M 379.48 149.37
  Q 368.43 154.03 357.12 158.28
  Q 354.46 159.28 350.29 160.40
  C 343.87 162.13 338.26 165.65 332.49 167.59
  C 330.77 168.17 329.40 169.33 327.73 169.84
  Q 324.31 170.90 321.35 172.91
  Q 320.94 173.19 320.43 173.22
  Q 319.15 173.30 318.75 173.49
  Q 314.21 175.69 309.49 177.50
  C 308.94 177.71 308.79 178.05 308.18 178.27
  Q 301.02 180.87 294.12 184.10
  Q 293.50 184.39 293.05 184.44
  Q 292.57 184.49 292.15 184.73
  C 288.32 186.92 284.31 188.23 280.36 190.09
  C 277.66 191.36 274.79 192.35 272.10 193.59
  C 270.21 194.45 268.17 195.01 266.45 196.18
  C 265.33 196.94 263.35 197.23 262.46 197.63
  Q 250.49 203.02 238.43 208.18
  Q 238.07 208.34 237.68 208.33
  Q 237.30 208.33 237.00 208.50
  Q 233.47 210.51 229.85 212.32
  Q 228.75 212.87 228.40 214.99
  Q 226.15 217.81 226.88 222.78
  Q 225.53 226.67 226.07 231.12
  C 226.22 235.33 226.95 239.55 226.87 243.64
  Q 226.35 272.45 226.86 301.25
  C 226.98 307.83 226.30 315.10 226.28 320.92
  C 226.09 392.47 227.28 458.67 226.90 527.50
  Q 226.86 536.01 227.09 547.51
  Q 227.78 581.60 226.36 615.68
  C 226.12 621.60 226.98 627.54 227.01 633.59
  Q 227.07 651.73 227.71 669.86
  Q 227.76 671.19 227.92 686.65
  Q 228.00 695.17 228.95 703.44
  Q 232.12 708.11 235.20 709.81
  Q 246.29 715.97 259.64 722.09
  C 261.07 722.75 262.78 722.55 264.28 723.58
  Q 266.70 725.24 266.77 725.28
  Q 268.62 726.18 270.52 726.96
  Q 271.05 727.18 271.49 727.57
  Q 272.79 728.71 274.53 728.89
  A 0.82 0.75 -19.2 0 1 274.93 729.06
  Q 276.82 730.63 280.02 731.84
  Q 284.43 733.51 292.20 738.19
  Q 292.59 738.43 293.36 738.65
  C 294.41 738.94 295.34 739.87 296.07 740.22
  Q 300.28 742.25 302.75 743.57
  A 45.11 15.24 35.2 0 0 308.02 746.21
  Q 315.36 749.63 323.42 753.42
  Q 323.84 753.62 324.21 754.00
  C 324.89 754.70 326.58 755.17 327.99 755.89
  Q 334.31 759.09 340.63 762.31
  C 341.89 762.94 343.53 763.21 344.85 764.19
  Q 345.25 764.49 345.75 764.57
  Q 346.52 764.69 347.21 765.07
  C 349.72 766.44 352.24 768.14 354.66 769.36
  Q 365.41 774.78 376.24 780.03
  C 378.65 781.20 380.63 783.60 383.02 784.97
  C 386.08 786.73 389.19 787.27 394.00 788.28
  Q 395.34 788.56 396.79 789.77
  Q 397.26 790.16 397.64 789.68
  L 399.17 787.72
  Q 400.62 778.93 400.47 769.76
  C 400.23 754.51 400.46 739.25 400.47 724.00
  Q 400.60 481.50 400.64 239.00
  Q 400.65 216.32 400.21 193.65
  C 400.02 183.56 397.37 173.40 398.90 163.38
  Q 399.70 158.19 399.66 155.45
  Q 399.58 149.36 399.20 143.30
  Q 399.09 141.66 397.49 142.01
  Q 387.95 144.10 379.48 149.37
  Z
  M 705.88 212.66
  Q 704.49 214.51 704.31 217.00
  C 702.88 237.43 705.49 257.57 705.14 277.99
  C 703.82 354.37 704.69 430.88 705.76 507.25
  Q 705.89 516.79 704.67 539.98
  C 704.37 545.55 704.73 554.01 711.25 556.23
  C 714.95 557.49 717.33 557.58 721.27 556.37
  Q 742.02 549.95 762.81 543.63
  C 771.36 541.03 779.47 537.77 787.74 534.56
  C 790.09 533.64 791.05 532.18 792.39 530.22
  Q 792.67 529.80 792.70 529.29
  C 792.86 526.45 794.49 523.85 795.14 521.97
  C 801.14 504.61 808.09 487.61 813.99 470.23
  C 814.77 467.95 817.91 465.84 818.24 462.75
  C 818.55 459.84 819.26 450.56 816.91 448.01
  Q 814.37 445.27 813.69 443.50
  C 805.89 423.42 792.87 406.58 782.49 389.23
  C 780.86 386.51 778.67 383.80 776.80 381.04
  Q 776.50 380.61 776.84 380.20
  L 810.21 340.60
  Q 812.14 339.29 812.72 336.77
  C 815.97 331.19 812.22 328.54 811.57 323.56
  C 811.10 319.94 810.81 316.41 809.69 312.89
  C 805.92 301.05 804.07 292.69 801.78 282.36
  C 799.91 273.93 796.69 265.65 794.12 257.25
  Q 793.37 254.81 788.22 248.29
  Q 782.13 243.79 773.36 240.15
  Q 766.31 237.23 757.24 232.69
  C 755.46 231.80 753.21 231.31 751.23 230.14
  Q 747.95 228.21 747.00 227.80
  Q 739.64 224.68 732.18 221.80
  C 731.21 221.42 730.12 221.27 729.26 220.90
  Q 722.42 217.94 715.68 214.76
  C 714.62 214.26 713.72 214.59 712.77 213.58
  Q 712.46 213.24 711.99 213.25
  Q 709.19 213.32 707.08 211.66
  Q 706.69 211.36 706.30 211.65
  Q 705.66 212.13 705.88 212.66
  Z
  M 137.82 253.99
  Q 135.84 262.16 136.01 267.25
  C 137.07 299.01 137.03 331.14 138.00 362.51
  C 138.40 375.57 137.98 390.31 138.34 404.25
  Q 138.38 405.99 137.70 407.86
  Q 137.52 408.34 137.06 408.57
  Q 128.75 412.71 119.72 414.85
  A 0.42 0.42 0.0 0 1 119.20 414.44
  Q 118.79 356.25 118.73 297.99
  C 118.72 289.04 119.50 275.76 118.89 265.04
  Q 118.77 262.83 116.99 260.76
  Q 116.56 260.27 116.37 260.90
  Q 116.33 261.03 116.27 261.15
  Q 116.10 261.50 116.18 261.88
  L 116.43 263.17
  Q 112.00 261.99 105.50 264.17
  Q 96.56 267.17 87.78 270.62
  Q 81.17 273.23 75.22 277.28
  C 67.48 280.93 56.96 284.67 53.66 293.26
  C 51.42 299.12 51.00 304.63 51.01 311.66
  Q 51.11 452.29 51.02 592.92
  C 51.02 598.72 49.32 609.70 53.08 614.41
  Q 58.69 621.44 69.72 626.48
  Q 81.46 631.84 92.51 638.46
  C 98.96 642.32 105.36 644.51 112.17 647.16
  Q 112.69 647.36 112.91 647.87
  L 113.34 648.83
  Q 113.61 649.41 114.09 648.98
  C 116.82 646.53 117.69 640.45 117.73 636.94
  Q 117.86 623.72 117.79 610.50
  C 117.68 589.00 118.36 567.49 118.91 546.00
  C 119.16 536.09 117.84 524.73 118.26 513.85
  C 118.29 513.01 117.98 512.33 117.71 511.55
  Q 117.55 511.11 118.01 511.15
  Q 124.79 511.71 128.84 514.38
  C 130.93 515.76 136.52 518.71 136.48 521.50
  Q 135.89 558.57 137.51 595.61
  C 138.06 608.22 138.21 619.33 138.33 631.21
  C 138.41 638.29 137.86 647.29 138.07 655.37
  C 138.11 656.85 138.56 657.87 139.08 659.24
  Q 139.33 660.23 139.93 661.28
  C 140.98 663.11 144.72 664.77 146.57 665.79
  Q 164.31 675.65 182.63 684.41
  C 183.85 684.99 184.99 686.01 186.43 686.56
  C 190.04 687.95 193.29 689.96 196.75 691.67
  Q 197.15 691.87 197.58 691.87
  Q 198.18 691.89 198.50 692.07
  C 200.61 693.27 203.59 693.81 206.38 695.56
  Q 206.84 695.84 207.26 695.51
  Q 208.43 694.55 208.75 693.21
  C 209.69 683.36 209.36 673.86 209.50 664.25
  C 209.92 634.59 210.62 604.91 210.46 575.25
  C 210.20 528.69 210.81 482.06 210.14 435.51
  Q 209.12 364.40 209.08 293.29
  C 209.07 287.49 208.78 281.87 208.49 276.16
  C 208.17 269.96 208.98 263.92 208.79 257.50
  C 208.49 247.14 209.29 236.64 209.47 226.25
  Q 209.49 224.78 208.74 223.27
  Q 208.64 222.28 207.94 221.84
  Q 207.47 221.55 207.05 221.92
  Q 205.88 222.97 205.25 223.03
  Q 198.60 223.65 196.25 224.51
  C 193.59 225.48 190.52 228.35 187.39 229.73
  Q 185.79 230.43 184.16 231.09
  C 183.28 231.45 182.59 232.14 181.57 232.44
  Q 179.89 232.93 179.53 233.10
  C 172.78 236.34 166.18 238.86 159.00 242.12
  Q 153.98 244.39 145.75 247.61
  Q 139.45 250.08 137.82 253.99
  Z
  M 845.25 272.69
  Q 840.42 274.52 837.81 279.18
  Q 836.12 280.30 836.28 282.25
  Q 835.99 282.84 835.76 283.54
  Q 833.12 291.78 830.64 300.07
  C 828.47 307.36 825.16 315.06 822.93 322.49
  Q 815.69 346.58 809.21 374.28
  C 808.47 377.41 809.17 379.99 809.27 383.09
  C 809.45 388.62 811.13 393.05 815.34 396.41
  C 827.81 406.39 839.04 415.59 852.13 426.97
  Q 868.24 440.97 885.21 453.68
  A 1.23 1.22 -65.1 0 1 885.67 454.95
  Q 882.15 469.55 878.64 483.76
  C 878.21 485.48 878.12 486.97 878.12 488.70
  Q 878.12 489.24 877.62 489.42
  Q 872.72 491.14 867.50 491.14
  C 863.50 491.14 859.96 488.76 856.86 486.92
  C 855.63 486.18 854.35 486.20 853.02 485.60
  Q 852.57 485.40 852.61 484.91
  C 853.11 479.88 853.65 474.15 851.27 469.94
  Q 849.95 467.61 847.08 466.36
  Q 839.16 462.89 831.45 465.19
  Q 828.37 465.70 827.36 467.11
  Q 822.91 473.39 819.76 482.01
  Q 819.16 483.65 816.84 488.71
  Q 814.19 494.45 814.37 500.93
  C 814.46 504.46 817.49 507.97 819.14 510.83
  C 819.75 511.88 820.79 512.95 821.74 513.42
  Q 829.34 517.19 836.65 521.47
  C 840.34 523.63 843.72 524.06 847.62 523.12
  Q 852.01 522.06 864.72 518.09
  Q 865.82 517.74 867.32 517.57
  Q 868.65 517.42 869.95 517.13
  Q 871.78 516.72 873.63 516.49
  C 880.69 515.61 888.21 512.94 894.80 510.32
  Q 897.89 509.09 900.84 508.61
  C 905.24 507.88 915.58 506.97 916.87 501.54
  Q 917.11 500.54 917.39 499.57
  C 918.05 497.27 919.48 495.04 920.35 492.66
  C 923.32 483.24 925.70 473.39 928.73 464.26
  Q 931.89 454.75 932.95 450.75
  C 933.77 447.68 933.67 443.34 934.46 439.52
  C 935.60 434.08 936.19 428.71 929.99 427.00
  Q 927.52 426.32 926.25 425.48
  Q 888.48 400.15 852.20 373.75
  Q 851.19 373.01 851.41 371.78
  Q 853.96 357.60 857.96 343.75
  Q 858.40 342.23 859.98 342.23
  L 874.73 342.22
  A 0.31 0.30 84.2 0 1 875.03 342.47
  C 876.48 350.53 878.31 358.34 879.62 366.60
  C 880.35 371.20 881.41 382.02 887.26 382.65
  Q 889.51 382.90 891.73 383.35
  Q 901.49 385.37 911.25 383.20
  C 914.71 382.44 918.42 385.90 920.74 380.99
  C 921.65 379.06 922.48 374.56 922.18 372.24
  C 919.89 354.68 918.57 337.08 916.58 319.50
  C 915.95 313.99 915.24 306.79 911.58 303.33
  Q 909.99 301.82 908.84 300.81
  Q 902.92 296.05 895.94 292.99
  Q 887.03 289.09 886.90 289.03
  Q 881.37 286.40 875.69 284.13
  C 864.96 279.84 856.73 276.34 847.30 272.32
  Q 846.84 272.12 846.36 272.29
  L 845.25 272.69
  Z"
/>
<path fill="#f4bab7" d="
  M 515.25 131.84
  C 503.96 127.85 492.64 123.29 481.87 118.06
  C 477.21 115.80 473.26 114.96 468.26 115.84
  C 464.31 116.53 459.30 118.55 454.82 119.80
  Q 451.42 120.74 448.41 122.15
  Q 441.10 125.56 433.58 128.46
  A 1.45 1.43 41.2 0 1 432.72 128.51
  L 429.92 127.80
  C 432.71 126.80 435.47 125.97 438.09 124.66
  Q 447.35 120.04 456.61 115.43
  C 459.78 113.86 463.99 109.40 467.74 109.95
  C 470.24 110.31 472.46 110.27 474.77 111.39
  C 478.70 113.30 482.44 115.38 486.56 116.97
  Q 494.67 120.09 502.48 123.90
  Q 507.89 126.53 513.26 129.23
  Q 514.69 129.96 515.25 131.84
  Z"
/>
<path fill="#da3737" d="
  M 515.25 131.84
  Q 516.30 139.27 516.01 147.13
  Q 515.94 148.86 514.95 153.28
  Q 513.90 157.91 514.65 163.12
  Q 515.75 170.81 516.12 183.36
  Q 516.53 197.20 516.75 236.25
  C 516.90 264.34 515.72 292.41 515.70 320.50
  Q 515.60 464.12 515.51 607.75
  Q 515.50 620.75 515.31 633.75
  Q 515.28 635.65 514.95 637.27
  A 0.55 0.55 0.0 0 0 515.66 637.90
  Q 540.47 630.18 564.92 622.63
  Q 609.73 608.81 654.45 594.72
  Q 659.08 593.26 663.75 591.93
  Q 669.16 590.39 673.03 589.11
  Q 729.80 570.41 751.50 564.26
  Q 768.84 559.34 786.16 554.32
  C 811.39 547.01 836.02 537.67 861.10 529.85
  Q 890.78 520.59 908.04 515.80
  Q 911.47 514.85 916.07 514.99
  C 919.41 515.09 922.61 514.87 925.77 515.20
  A 1.01 1.00 13.0 0 1 926.61 516.53
  C 925.95 518.36 926.81 519.26 927.23 520.76
  Q 928.60 525.57 928.62 532.25
  Q 928.70 556.25 928.69 580.25
  Q 928.69 584.22 929.12 587.99
  Q 928.19 598.92 928.60 609.74
  Q 928.64 610.89 927.55 612.06
  C 924.36 615.45 922.28 617.60 917.77 619.27
  C 898.46 626.43 879.24 634.04 859.60 640.24
  Q 858.87 640.47 857.69 641.05
  C 856.31 641.74 854.00 642.27 853.08 642.60
  Q 832.86 649.85 812.70 657.25
  Q 789.02 665.95 765.27 674.49
  C 764.27 674.85 763.39 675.46 762.22 675.77
  Q 760.21 676.31 759.86 676.45
  Q 748.68 680.72 737.33 684.56
  C 736.31 684.90 735.46 685.63 734.30 685.95
  Q 732.43 686.47 732.38 686.49
  Q 706.00 696.14 681.42 704.99
  Q 670.13 709.06 658.85 713.18
  Q 637.16 721.11 600.25 734.55
  C 598.51 735.19 595.31 736.12 592.96 737.23
  C 591.91 737.72 590.94 737.71 589.87 738.11
  C 565.10 747.39 540.39 756.28 516.13 766.89
  Q 513.54 768.02 511.01 769.42
  L 497.04 775.41
  Q 489.14 775.01 480.51 778.27
  Q 472.20 781.40 467.82 783.64
  L 421.70 800.10
  Q 421.25 800.27 421.01 799.85
  C 418.24 795.23 418.70 787.66 418.34 782.36
  C 418.18 780.08 418.66 778.43 419.08 776.24
  C 419.80 772.47 418.33 767.58 418.25 763.74
  C 418.06 754.93 418.35 746.05 417.58 737.26
  Q 416.99 730.39 416.99 727.75
  Q 416.99 624.63 416.99 521.50
  Q 416.99 516.45 416.76 501.50
  C 416.56 488.07 416.99 472.48 416.99 461.25
  C 417.00 361.85 416.39 262.40 417.35 163.00
  C 417.40 157.85 416.31 152.88 416.55 148.46
  Q 416.91 141.55 417.50 136.24
  C 418.01 131.59 425.76 129.12 429.92 127.80
  L 432.72 128.51
  A 1.45 1.43 41.2 0 0 433.58 128.46
  Q 441.10 125.56 448.41 122.15
  Q 451.42 120.74 454.82 119.80
  C 459.30 118.55 464.31 116.53 468.26 115.84
  C 473.26 114.96 477.21 115.80 481.87 118.06
  C 492.64 123.29 503.96 127.85 515.25 131.84
  Z
  M 422.1988 779.5069
  A 1.53 0.46 59.4 0 0 421.8159 777.9558
  A 1.53 0.46 59.4 0 0 420.6412 776.8731
  A 1.53 0.46 59.4 0 0 421.0241 778.4242
  A 1.53 0.46 59.4 0 0 422.1988 779.5069
  Z"
/>
<path fill="#f4bab7" d="
  M 687.92 205.57
  Q 685.19 205.47 683.76 204.86
  Q 617.44 176.73 551.31 148.15
  C 549.46 147.36 547.86 146.27 545.99 145.62
  Q 539.82 143.49 534.35 140.13
  Q 535.88 138.37 536.77 138.85
  Q 539.55 140.36 542.53 141.36
  A 1.72 1.67 -11.4 0 1 543.26 141.83
  Q 544.90 143.60 547.25 143.37
  A 1.47 1.44 -29.1 0 1 548.24 143.64
  C 550.38 145.18 553.28 146.02 554.93 146.80
  Q 558.09 148.27 561.24 149.78
  Q 563.71 150.97 564.64 151.37
  Q 567.93 152.77 571.24 154.15
  C 573.01 154.88 574.36 155.97 576.20 156.47
  Q 579.44 157.34 582.47 158.79
  Q 582.66 159.23 583.11 159.13
  Q 583.62 159.01 584.01 159.37
  Q 585.27 160.54 586.97 160.39
  A 1.28 1.25 -30.1 0 1 587.79 160.60
  Q 590.60 162.55 593.98 163.18
  A 1.47 1.39 -14.7 0 1 594.75 163.60
  Q 595.89 164.82 597.74 165.13
  Q 598.12 165.19 598.27 165.52
  Q 598.47 165.95 598.91 166.10
  Q 602.71 167.43 606.54 168.69
  Q 607.46 168.99 609.22 170.04
  C 610.44 170.77 611.92 171.07 613.04 171.59
  Q 617.62 173.71 622.27 175.62
  Q 625.75 177.06 629.21 178.57
  Q 629.24 178.58 630.84 179.08
  C 631.94 179.42 632.50 180.28 633.42 180.72
  Q 635.46 181.69 637.52 182.59
  C 638.13 182.86 639.29 182.98 640.07 183.59
  Q 640.44 183.88 640.90 184.01
  L 642.81 184.52
  Q 643.31 184.65 643.49 185.13
  Q 643.82 185.98 644.63 186.12
  C 646.86 186.50 647.95 187.75 650.06 188.09
  Q 651.25 188.29 652.28 188.86
  Q 655.20 190.49 658.49 191.19
  Q 659.73 191.46 662.24 193.29
  Q 662.36 193.38 662.75 193.41
  Q 663.24 193.45 663.66 193.70
  Q 666.24 195.26 670.74 196.67
  Q 674.77 197.92 683.44 202.27
  Q 683.50 202.31 685.07 202.89
  Q 686.75 203.51 687.92 205.57
  Z"
/>
<path fill="#da3737" d="
  M 534.35 140.13
  Q 539.82 143.49 545.99 145.62
  C 547.86 146.27 549.46 147.36 551.31 148.15
  Q 617.44 176.73 683.76 204.86
  Q 685.19 205.47 687.92 205.57
  Q 688.94 211.46 689.09 217.69
  Q 689.15 220.10 688.28 229.77
  C 687.45 239.07 689.03 249.76 689.17 256.93
  C 689.35 265.74 689.04 276.11 689.04 283.35
  Q 689.09 338.80 689.05 394.25
  C 689.05 398.31 688.03 403.02 688.01 407.27
  C 687.95 416.24 688.13 425.11 687.63 434.08
  C 687.11 443.48 687.58 453.07 687.56 462.51
  Q 687.52 472.77 687.92 482.49
  Q 688.89 506.60 688.61 513.50
  Q 688.00 528.15 688.08 542.80
  C 688.10 545.78 687.41 550.00 687.91 553.63
  C 688.45 557.65 688.09 561.13 688.60 564.97
  A 1.10 1.08 64.1 0 1 688.30 565.86
  Q 687.36 566.82 685.73 567.21
  Q 667.81 571.54 646.01 578.75
  Q 643.65 579.53 640.21 581.28
  Q 596.06 595.01 552.10 608.87
  C 546.77 610.55 539.39 611.42 535.17 606.70
  C 531.03 602.08 530.29 599.64 530.97 593.35
  Q 531.01 413.47 531.00 233.50
  C 531.00 221.62 531.65 206.75 531.52 193.35
  Q 531.47 188.77 532.16 182.19
  Q 533.28 171.52 532.26 160.84
  Q 531.61 154.07 532.01 150.63
  Q 532.65 145.15 534.35 140.13
  Z
  M 596.27 239.44
  C 596.81 241.11 597.25 242.46 597.25 244.24
  Q 597.25 379.37 597.23 514.50
  Q 597.23 527.57 596.91 540.45
  Q 596.90 540.81 597.26 540.72
  Q 615.50 536.21 633.28 530.08
  A 1.45 1.45 0.0 0 0 634.21 528.34
  C 632.26 521.01 632.88 512.99 632.88 505.44
  Q 632.90 381.75 632.89 258.06
  C 632.89 256.50 633.25 255.29 634.06 254.07
  A 0.84 0.84 0.0 0 0 633.78 252.87
  Q 628.38 249.75 622.55 247.66
  Q 609.63 243.03 596.48 239.23
  A 0.17 0.17 0.0 0 0 596.27 239.44
  Z"
/>
<path fill="#da3737" d="
  M 399.17 787.72
  C 397.16 788.23 397.04 786.42 395.53 785.65
  Q 390.95 783.29 386.06 781.70
  Q 382.00 780.37 380.03 778.84
  Q 377.55 776.91 374.74 775.51
  Q 301.95 739.29 228.95 703.44
  Q 228.00 695.17 227.92 686.65
  Q 227.76 671.19 227.71 669.86
  Q 227.07 651.73 227.01 633.59
  C 226.98 627.54 226.12 621.60 226.36 615.68
  Q 227.78 581.60 227.09 547.51
  Q 226.86 536.01 226.90 527.50
  C 227.28 458.67 226.09 392.47 226.28 320.92
  C 226.30 315.10 226.98 307.83 226.86 301.25
  Q 226.35 272.45 226.87 243.64
  C 226.95 239.55 226.22 235.33 226.07 231.12
  L 226.88 222.78
  Q 226.15 217.81 228.40 214.99
  Q 234.18 213.47 239.49 211.18
  Q 307.29 181.95 375.38 153.38
  Q 379.43 151.68 379.48 149.37
  Q 387.95 144.10 397.49 142.01
  Q 399.09 141.66 399.20 143.30
  Q 399.58 149.36 399.66 155.45
  Q 399.70 158.19 398.90 163.38
  C 397.37 173.40 400.02 183.56 400.21 193.65
  Q 400.65 216.32 400.64 239.00
  Q 400.60 481.50 400.47 724.00
  C 400.46 739.25 400.23 754.51 400.47 769.76
  Q 400.62 778.93 399.17 787.72
  Z
  M 295.44 235.42
  C 291.37 237.05 283.58 240.27 280.89 243.69
  Q 279.89 244.97 279.89 247.10
  Q 279.98 453.97 279.90 660.65
  A 0.83 0.83 0.0 0 0 280.43 661.44
  L 333.80 682.23
  A 0.24 0.24 0.0 0 0 334.13 681.96
  Q 333.74 680.03 333.74 678.00
  Q 333.57 451.44 333.53 224.89
  C 333.53 223.39 334.14 221.98 334.27 220.44
  Q 334.33 219.80 333.76 220.08
  Q 321.57 225.98 318.00 227.24
  Q 299.98 233.60 295.44 235.42
  Z"
/>
<path fill="#f4bab7" d="
  M 379.48 149.37
  Q 379.43 151.68 375.38 153.38
  Q 307.29 181.95 239.49 211.18
  Q 234.18 213.47 228.40 214.99
  Q 228.75 212.87 229.85 212.32
  Q 233.47 210.51 237.00 208.50
  Q 237.30 208.33 237.68 208.33
  Q 238.07 208.34 238.43 208.18
  Q 250.49 203.02 262.46 197.63
  C 263.35 197.23 265.33 196.94 266.45 196.18
  C 268.17 195.01 270.21 194.45 272.10 193.59
  C 274.79 192.35 277.66 191.36 280.36 190.09
  C 284.31 188.23 288.32 186.92 292.15 184.73
  Q 292.57 184.49 293.05 184.44
  Q 293.50 184.39 294.12 184.10
  Q 301.02 180.87 308.18 178.27
  C 308.79 178.05 308.94 177.71 309.49 177.50
  Q 314.21 175.69 318.75 173.49
  Q 319.15 173.30 320.43 173.22
  Q 320.94 173.19 321.35 172.91
  Q 324.31 170.90 327.73 169.84
  C 329.40 169.33 330.77 168.17 332.49 167.59
  C 338.26 165.65 343.87 162.13 350.29 160.40
  Q 354.46 159.28 357.12 158.28
  Q 368.43 154.03 379.48 149.37
  Z"
/>
<path fill="#f4bab7" d="
  M 788.22 248.29
  Q 786.53 248.00 784.81 247.73
  Q 783.05 247.45 781.48 246.80
  Q 744.52 231.46 707.87 215.39
  Q 706.44 214.76 705.88 212.66
  Q 705.66 212.13 706.30 211.65
  Q 706.69 211.36 707.08 211.66
  Q 709.19 213.32 711.99 213.25
  Q 712.46 213.24 712.77 213.58
  C 713.72 214.59 714.62 214.26 715.68 214.76
  Q 722.42 217.94 729.26 220.90
  C 730.12 221.27 731.21 221.42 732.18 221.80
  Q 739.64 224.68 747.00 227.80
  Q 747.95 228.21 751.23 230.14
  C 753.21 231.31 755.46 231.80 757.24 232.69
  Q 766.31 237.23 773.36 240.15
  Q 782.13 243.79 788.22 248.29
  Z"
/>
<path fill="#da3737" d="
  M 705.88 212.66
  Q 706.44 214.76 707.87 215.39
  Q 744.52 231.46 781.48 246.80
  Q 783.05 247.45 784.81 247.73
  Q 786.53 248.00 788.22 248.29
  Q 793.37 254.81 794.12 257.25
  C 796.69 265.65 799.91 273.93 801.78 282.36
  C 804.07 292.69 805.92 301.05 809.69 312.89
  C 810.81 316.41 811.10 319.94 811.57 323.56
  C 812.22 328.54 815.97 331.19 812.72 336.77
  Q 810.96 338.55 810.21 340.60
  L 776.84 380.20
  Q 776.50 380.61 776.80 381.04
  C 778.67 383.80 780.86 386.51 782.49 389.23
  C 792.87 406.58 805.89 423.42 813.69 443.50
  Q 814.37 445.27 816.91 448.01
  C 819.26 450.56 818.55 459.84 818.24 462.75
  C 817.91 465.84 814.77 467.95 813.99 470.23
  C 808.09 487.61 801.14 504.61 795.14 521.97
  C 794.49 523.85 792.86 526.45 792.70 529.29
  Q 792.67 529.80 792.39 530.22
  C 791.05 532.18 790.09 533.64 787.74 534.56
  C 779.47 537.77 771.36 541.03 762.81 543.63
  Q 742.02 549.95 721.27 556.37
  C 717.33 557.58 714.95 557.49 711.25 556.23
  C 704.73 554.01 704.37 545.55 704.67 539.98
  Q 705.89 516.79 705.76 507.25
  C 704.69 430.88 703.82 354.37 705.14 277.99
  C 705.49 257.57 702.88 237.43 704.31 217.00
  Q 704.49 214.51 705.88 212.66
  Z
  M 766.38 318.60
  C 758.79 312.41 751.89 305.52 744.26 299.39
  C 742.93 298.31 741.80 296.85 740.46 295.64
  Q 740.07 295.28 740.04 295.81
  Q 738.82 318.71 740.71 341.54
  C 740.82 342.88 740.68 344.04 740.51 345.37
  Q 740.47 345.71 740.73 345.49
  L 770.09 321.97
  A 0.60 0.60 0.0 0 0 769.98 320.96
  Q 768.16 320.05 766.38 318.60
  Z
  M 754.63 477.62
  Q 755.43 482.11 755.57 488.22
  Q 755.58 488.67 755.92 488.36
  Q 759.39 485.20 769.17 476.67
  C 776.43 470.33 783.38 462.04 791.44 454.54
  A 0.24 0.24 0.0 0 0 791.31 454.12
  Q 789.67 453.90 787.99 453.46
  Q 771.97 449.30 755.94 445.19
  Q 753.07 444.45 750.36 443.28
  Q 749.78 443.03 749.84 443.66
  Q 751.37 459.33 754.63 477.62
  Z"
/>
<path fill="#ffffff" d="
  M 295.44 235.42
  Q 299.98 233.60 318.00 227.24
  Q 321.57 225.98 333.76 220.08
  Q 334.33 219.80 334.27 220.44
  C 334.14 221.98 333.53 223.39 333.53 224.89
  Q 333.57 451.44 333.74 678.00
  Q 333.74 680.03 334.13 681.96
  A 0.24 0.24 0.0 0 1 333.80 682.23
  L 280.43 661.44
  A 0.83 0.83 0.0 0 1 279.90 660.65
  Q 279.98 453.97 279.89 247.10
  Q 279.89 244.97 280.89 243.69
  C 283.58 240.27 291.37 237.05 295.44 235.42
  Z"
/>
<path fill="#f4bab7" d="
  M 208.74 223.27
  Q 208.41 223.18 208.08 223.22
  A 1.02 1.01 9.3 0 0 207.30 223.77
  Q 206.73 224.86 205.87 225.16
  C 201.71 226.60 197.92 228.00 193.87 230.17
  Q 189.06 232.76 186.38 233.89
  Q 167.01 242.04 147.76 250.47
  Q 143.69 252.26 137.82 253.99
  Q 139.45 250.08 145.75 247.61
  Q 153.98 244.39 159.00 242.12
  C 166.18 238.86 172.78 236.34 179.53 233.10
  Q 179.89 232.93 181.57 232.44
  C 182.59 232.14 183.28 231.45 184.16 231.09
  Q 185.79 230.43 187.39 229.73
  C 190.52 228.35 193.59 225.48 196.25 224.51
  Q 198.60 223.65 205.25 223.03
  Q 205.88 222.97 207.05 221.92
  Q 207.47 221.55 207.94 221.84
  Q 208.64 222.28 208.74 223.27
  Z"
/>
<path fill="#f4bab7" d="
  M 226.88 222.78
  L 226.07 231.12
  Q 225.53 226.67 226.88 222.78
  Z"
/>
<path fill="#da3737" d="
  M 208.74 223.27
  Q 209.49 224.78 209.47 226.25
  C 209.29 236.64 208.49 247.14 208.79 257.50
  C 208.98 263.92 208.17 269.96 208.49 276.16
  C 208.78 281.87 209.07 287.49 209.08 293.29
  Q 209.12 364.40 210.14 435.51
  C 210.81 482.06 210.20 528.69 210.46 575.25
  C 210.62 604.91 209.92 634.59 209.50 664.25
  C 209.36 673.86 209.69 683.36 208.75 693.21
  L 139.08 659.24
  C 138.56 657.87 138.11 656.85 138.07 655.37
  C 137.86 647.29 138.41 638.29 138.33 631.21
  C 138.21 619.33 138.06 608.22 137.51 595.61
  Q 135.89 558.57 136.48 521.50
  C 136.52 518.71 130.93 515.76 128.84 514.38
  Q 124.79 511.71 118.01 511.15
  Q 117.55 511.11 117.71 511.55
  C 117.98 512.33 118.29 513.01 118.26 513.85
  C 117.84 524.73 119.16 536.09 118.91 546.00
  C 118.36 567.49 117.68 589.00 117.79 610.50
  Q 117.86 623.72 117.73 636.94
  C 117.69 640.45 116.82 646.53 114.09 648.98
  Q 113.61 649.41 113.34 648.83
  L 112.91 647.87
  Q 112.69 647.36 112.17 647.16
  C 105.36 644.51 98.96 642.32 92.51 638.46
  Q 81.46 631.84 69.72 626.48
  Q 58.69 621.44 53.08 614.41
  C 49.32 609.70 51.02 598.72 51.02 592.92
  Q 51.11 452.29 51.01 311.66
  C 51.00 304.63 51.42 299.12 53.66 293.26
  C 56.96 284.67 67.48 280.93 75.22 277.28
  Q 88.60 271.08 102.32 266.31
  Q 105.38 265.25 109.33 264.56
  Q 112.83 263.95 116.43 263.17
  L 116.18 261.88
  Q 116.10 261.50 116.27 261.15
  Q 116.33 261.03 116.37 260.90
  Q 116.56 260.27 116.99 260.76
  Q 118.77 262.83 118.89 265.04
  C 119.50 275.76 118.72 289.04 118.73 297.99
  Q 118.79 356.25 119.20 414.44
  A 0.42 0.42 0.0 0 0 119.72 414.85
  Q 128.75 412.71 137.06 408.57
  Q 137.52 408.34 137.70 407.86
  Q 138.38 405.99 138.34 404.25
  C 137.98 390.31 138.40 375.57 138.00 362.51
  C 137.03 331.14 137.07 299.01 136.01 267.25
  Q 135.84 262.16 137.82 253.99
  Q 143.69 252.26 147.76 250.47
  Q 167.01 242.04 186.38 233.89
  Q 189.06 232.76 193.87 230.17
  C 197.92 228.00 201.71 226.60 205.87 225.16
  Q 206.73 224.86 207.30 223.77
  A 1.02 1.01 9.3 0 1 208.08 223.22
  Q 208.41 223.18 208.74 223.27
  Z"
/>
<path fill="#ffffff" d="
  M 596.27 239.44
  A 0.17 0.17 0.0 0 1 596.48 239.23
  Q 609.63 243.03 622.55 247.66
  Q 628.38 249.75 633.78 252.87
  A 0.84 0.84 0.0 0 1 634.06 254.07
  C 633.25 255.29 632.89 256.50 632.89 258.06
  Q 632.90 381.75 632.88 505.44
  C 632.88 512.99 632.26 521.01 634.21 528.34
  A 1.45 1.45 0.0 0 1 633.28 530.08
  Q 615.50 536.21 597.26 540.72
  Q 596.90 540.81 596.91 540.45
  Q 597.23 527.57 597.23 514.50
  Q 597.25 379.37 597.25 244.24
  C 597.25 242.46 596.81 241.11 596.27 239.44
  Z"
/>
<path fill="#f4bab7" d="
  M 116.43 263.17
  Q 112.83 263.95 109.33 264.56
  Q 105.38 265.25 102.32 266.31
  Q 88.60 271.08 75.22 277.28
  Q 81.17 273.23 87.78 270.62
  Q 96.56 267.17 105.50 264.17
  Q 112.00 261.99 116.43 263.17
  Z"
/>
<path fill="#f4bab7" d="
  M 908.84 300.81
  Q 881.44 290.53 855.52 278.64
  Q 850.99 276.57 847.29 273.24
  Q 846.60 272.62 845.25 272.69
  L 846.36 272.29
  Q 846.84 272.12 847.30 272.32
  C 856.73 276.34 864.96 279.84 875.69 284.13
  Q 881.37 286.40 886.90 289.03
  Q 887.03 289.09 895.94 292.99
  Q 902.92 296.05 908.84 300.81
  Z"
/>
<path fill="#da3737" d="
  M 845.25 272.69
  Q 846.60 272.62 847.29 273.24
  Q 850.99 276.57 855.52 278.64
  Q 881.44 290.53 908.84 300.81
  Q 909.99 301.82 911.58 303.33
  C 915.24 306.79 915.95 313.99 916.58 319.50
  C 918.57 337.08 919.89 354.68 922.18 372.24
  C 922.48 374.56 921.65 379.06 920.74 380.99
  C 918.42 385.90 914.71 382.44 911.25 383.20
  Q 901.49 385.37 891.73 383.35
  Q 889.51 382.90 887.26 382.65
  C 881.41 382.02 880.35 371.20 879.62 366.60
  C 878.31 358.34 876.48 350.53 875.03 342.47
  A 0.31 0.30 84.2 0 0 874.73 342.22
  L 859.98 342.23
  Q 858.40 342.23 857.96 343.75
  Q 853.96 357.60 851.41 371.78
  Q 851.19 373.01 852.20 373.75
  Q 888.48 400.15 926.25 425.48
  Q 927.52 426.32 929.99 427.00
  C 936.19 428.71 935.60 434.08 934.46 439.52
  C 933.67 443.34 933.77 447.68 932.95 450.75
  Q 931.89 454.75 928.73 464.26
  C 925.70 473.39 923.32 483.24 920.35 492.66
  Q 918.37 495.37 917.01 498.39
  Q 915.57 501.58 914.85 502.49
  C 912.18 505.82 905.25 506.30 901.27 507.17
  C 891.44 509.32 882.24 513.08 872.30 515.08
  Q 860.80 517.39 849.62 520.93
  C 847.46 521.62 843.67 521.99 842.00 521.47
  Q 835.97 519.62 825.93 513.85
  Q 824.07 512.78 819.05 508.12
  Q 818.04 507.17 817.36 505.81
  C 815.88 502.87 814.80 501.13 815.70 497.25
  C 816.24 494.90 816.61 492.56 817.51 490.32
  Q 820.51 482.87 823.38 475.35
  Q 825.44 469.92 831.45 465.19
  Q 839.16 462.89 847.08 466.36
  Q 849.95 467.61 851.27 469.94
  C 853.65 474.15 853.11 479.88 852.61 484.91
  Q 852.57 485.40 853.02 485.60
  C 854.35 486.20 855.63 486.18 856.86 486.92
  C 859.96 488.76 863.50 491.14 867.50 491.14
  Q 872.72 491.14 877.62 489.42
  Q 878.12 489.24 878.12 488.70
  C 878.12 486.97 878.21 485.48 878.64 483.76
  Q 882.15 469.55 885.67 454.95
  A 1.23 1.22 -65.1 0 0 885.21 453.68
  Q 868.24 440.97 852.13 426.97
  C 839.04 415.59 827.81 406.39 815.34 396.41
  C 811.13 393.05 809.45 388.62 809.27 383.09
  C 809.17 379.99 808.47 377.41 809.21 374.28
  Q 815.69 346.58 822.93 322.49
  C 825.16 315.06 828.47 307.36 830.64 300.07
  Q 833.12 291.78 835.76 283.54
  Q 835.99 282.84 836.28 282.25
  Q 837.36 280.83 837.81 279.18
  Q 840.42 274.52 845.25 272.69
  Z"
/>
<path fill="#f4bab7" d="
  M 837.81 279.18
  Q 837.36 280.83 836.28 282.25
  Q 836.12 280.30 837.81 279.18
  Z"
/>
<path fill="#ffffff" d="
  M 744.26 299.39
  C 751.89 305.52 758.79 312.41 766.38 318.60
  Q 768.16 320.05 769.98 320.96
  A 0.60 0.60 0.0 0 1 770.09 321.97
  L 740.73 345.49
  Q 740.47 345.71 740.51 345.37
  C 740.68 344.04 740.82 342.88 740.71 341.54
  Q 738.82 318.71 740.04 295.81
  Q 740.07 295.28 740.46 295.64
  C 741.80 296.85 742.93 298.31 744.26 299.39
  Z"
/>
<path fill="#f4bab7" d="
  M 812.72 336.77
  Q 812.14 339.29 810.21 340.60
  Q 810.96 338.55 812.72 336.77
  Z"
/>
<path fill="#ffffff" d="
  M 754.63 477.62
  Q 751.37 459.33 749.84 443.66
  Q 749.78 443.03 750.36 443.28
  Q 753.07 444.45 755.94 445.19
  Q 771.97 449.30 787.99 453.46
  Q 789.67 453.90 791.31 454.12
  A 0.24 0.24 0.0 0 1 791.44 454.54
  C 783.38 462.04 776.43 470.33 769.17 476.67
  Q 759.39 485.20 755.92 488.36
  Q 755.58 488.67 755.57 488.22
  Q 755.43 482.11 754.63 477.62
  Z"
/>
<path fill="#f4bab7" d="
  M 831.45 465.19
  Q 825.44 469.92 823.38 475.35
  Q 820.51 482.87 817.51 490.32
  C 816.61 492.56 816.24 494.90 815.70 497.25
  C 814.80 501.13 815.88 502.87 817.36 505.81
  Q 818.04 507.17 819.05 508.12
  Q 824.07 512.78 825.93 513.85
  Q 835.97 519.62 842.00 521.47
  C 843.67 521.99 847.46 521.62 849.62 520.93
  Q 860.80 517.39 872.30 515.08
  C 882.24 513.08 891.44 509.32 901.27 507.17
  C 905.25 506.30 912.18 505.82 914.85 502.49
  Q 915.57 501.58 917.01 498.39
  Q 918.37 495.37 920.35 492.66
  C 919.48 495.04 918.05 497.27 917.39 499.57
  Q 917.11 500.54 916.87 501.54
  C 915.58 506.97 905.24 507.88 900.84 508.61
  Q 897.89 509.09 894.80 510.32
  C 888.21 512.94 880.69 515.61 873.63 516.49
  Q 871.78 516.72 869.95 517.13
  Q 868.65 517.42 867.32 517.57
  Q 865.82 517.74 864.72 518.09
  Q 852.01 522.06 847.62 523.12
  C 843.72 524.06 840.34 523.63 836.65 521.47
  Q 829.34 517.19 821.74 513.42
  C 820.79 512.95 819.75 511.88 819.14 510.83
  C 817.49 507.97 814.46 504.46 814.37 500.93
  Q 814.19 494.45 816.84 488.71
  Q 819.16 483.65 819.76 482.01
  Q 822.91 473.39 827.36 467.11
  Q 828.37 465.70 831.45 465.19
  Z"
/>
<path fill="#f4bab7" d="
  M 640.21 581.28
  Q 636.85 583.84 632.86 585.07
  Q 571.41 604.01 553.43 609.86
  Q 551.99 610.33 549.69 611.92
  C 547.26 613.59 546.46 615.88 542.48 616.35
  C 539.09 616.76 536.81 616.15 534.27 613.81
  C 532.71 612.38 530.98 611.47 530.38 609.10
  C 529.71 606.44 530.43 603.68 530.01 600.91
  Q 529.38 596.64 530.97 593.35
  C 530.29 599.64 531.03 602.08 535.17 606.70
  C 539.39 611.42 546.77 610.55 552.10 608.87
  Q 596.06 595.01 640.21 581.28
  Z"
/>
<path fill="#f4bab7" d="
  M 929.12 587.99
  Q 929.19 599.74 930.94 611.11
  C 931.18 612.68 930.81 613.87 930.60 615.43
  A 1.35 1.35 0.0 0 1 930.26 616.18
  Q 928.12 618.51 925.02 619.58
  Q 914.42 623.22 904.04 627.40
  Q 897.23 630.13 891.84 631.98
  Q 885.67 634.09 879.51 636.22
  C 877.44 636.94 875.05 638.59 872.28 638.99
  Q 871.79 639.06 871.39 639.33
  C 869.77 640.41 867.84 640.47 866.33 641.12
  Q 856.27 645.44 845.88 648.88
  Q 841.18 650.44 836.58 652.27
  C 828.00 655.68 819.54 658.12 811.18 661.59
  C 807.56 663.09 803.65 663.77 800.10 665.39
  C 798.10 666.31 795.97 666.71 793.91 667.64
  Q 793.16 667.99 790.73 668.75
  C 788.27 669.52 786.39 670.82 783.40 671.60
  Q 780.97 672.23 779.17 672.94
  Q 765.93 678.14 752.49 682.80
  Q 749.20 683.94 744.09 685.91
  Q 739.91 687.53 735.65 688.96
  Q 730.90 690.56 725.48 692.68
  Q 720.42 694.65 715.23 696.28
  Q 713.99 696.68 711.16 697.81
  C 709.36 698.53 707.28 699.02 705.63 699.64
  Q 700.56 701.56 695.52 703.57
  C 693.85 704.24 690.90 704.93 688.68 705.97
  C 686.34 707.07 683.85 707.55 681.50 708.69
  A 1.90 1.88 33.6 0 1 680.57 708.87
  C 679.05 708.77 678.13 709.87 677.16 710.27
  Q 675.33 711.04 673.43 711.50
  Q 671.86 711.88 670.00 712.72
  Q 668.87 713.23 667.68 713.56
  Q 666.13 713.98 665.35 714.30
  Q 657.27 717.59 649.03 720.46
  Q 638.84 724.01 628.75 727.81
  Q 628.43 727.93 625.69 728.68
  C 624.30 729.06 622.99 729.92 621.72 730.32
  C 617.75 731.56 613.65 733.37 610.03 734.58
  Q 602.66 737.05 595.41 739.87
  Q 588.14 742.70 582.93 744.47
  C 575.15 747.12 569.91 749.23 563.67 751.50
  Q 546.39 757.78 528.84 763.27
  Q 527.69 763.63 523.51 765.23
  Q 520.87 766.24 518.09 766.83
  A 4.45 4.31 22.8 0 0 516.78 767.34
  Q 514.07 768.94 511.01 769.42
  Q 513.54 768.02 516.13 766.89
  C 540.39 756.28 565.10 747.39 589.87 738.11
  C 590.94 737.71 591.91 737.72 592.96 737.23
  C 595.31 736.12 598.51 735.19 600.25 734.55
  Q 637.16 721.11 658.85 713.18
  Q 670.13 709.06 681.42 704.99
  Q 706.00 696.14 732.38 686.49
  Q 732.43 686.47 734.30 685.95
  C 735.46 685.63 736.31 684.90 737.33 684.56
  Q 748.68 680.72 759.86 676.45
  Q 760.21 676.31 762.22 675.77
  C 763.39 675.46 764.27 674.85 765.27 674.49
  Q 789.02 665.95 812.70 657.25
  Q 832.86 649.85 853.08 642.60
  C 854.00 642.27 856.31 641.74 857.69 641.05
  Q 858.87 640.47 859.60 640.24
  C 879.24 634.04 898.46 626.43 917.77 619.27
  C 922.28 617.60 924.36 615.45 927.55 612.06
  Q 928.64 610.89 928.60 609.74
  Q 928.19 598.92 929.12 587.99
  Z"
/>
<path fill="#f4bab7" d="
  M 139.08 659.24
  L 208.75 693.21
  Q 208.43 694.55 207.26 695.51
  Q 206.84 695.84 206.38 695.56
  C 203.59 693.81 200.61 693.27 198.50 692.07
  Q 198.18 691.89 197.58 691.87
  Q 197.15 691.87 196.75 691.67
  C 193.29 689.96 190.04 687.95 186.43 686.56
  C 184.99 686.01 183.85 684.99 182.63 684.41
  Q 164.31 675.65 146.57 665.79
  C 144.72 664.77 140.98 663.11 139.93 661.28
  Q 139.33 660.23 139.08 659.24
  Z"
/>
<path fill="#f4bab7" d="
  M 228.95 703.44
  Q 301.95 739.29 374.74 775.51
  Q 377.55 776.91 380.03 778.84
  Q 382.00 780.37 386.06 781.70
  Q 390.95 783.29 395.53 785.65
  C 397.04 786.42 397.16 788.23 399.17 787.72
  L 397.64 789.68
  Q 397.26 790.16 396.79 789.77
  Q 395.34 788.56 394.00 788.28
  C 389.19 787.27 386.08 786.73 383.02 784.97
  C 380.63 783.60 378.65 781.20 376.24 780.03
  Q 365.41 774.78 354.66 769.36
  C 352.24 768.14 349.72 766.44 347.21 765.07
  Q 346.52 764.69 345.75 764.57
  Q 345.25 764.49 344.85 764.19
  C 343.53 763.21 341.89 762.94 340.63 762.31
  Q 334.31 759.09 327.99 755.89
  C 326.58 755.17 324.89 754.70 324.21 754.00
  Q 323.84 753.62 323.42 753.42
  Q 315.36 749.63 308.02 746.21
  A 45.11 15.24 35.2 0 1 302.75 743.57
  Q 300.28 742.25 296.07 740.22
  C 295.34 739.87 294.41 738.94 293.36 738.65
  Q 292.59 738.43 292.20 738.19
  Q 284.43 733.51 280.02 731.84
  Q 276.82 730.63 274.93 729.06
  A 0.82 0.75 -19.2 0 0 274.53 728.89
  Q 272.79 728.71 271.49 727.57
  Q 271.05 727.18 270.52 726.96
  Q 268.62 726.18 266.77 725.28
  Q 266.70 725.24 264.28 723.58
  C 262.78 722.55 261.07 722.75 259.64 722.09
  Q 246.29 715.97 235.20 709.81
  Q 232.12 708.11 228.95 703.44
  Z"
/>
<path fill="#f4bab7" d="
  M 497.04 775.41
  Q 491.02 776.49 482.77 780.01
  Q 476.84 782.53 467.82 783.64
  Q 472.20 781.40 480.51 778.27
  Q 489.14 775.01 497.04 775.41
  Z"
/>
<ellipse fill="#f4bab7" cx="0.00" cy="0.00" transform="translate(421.42,778.19) rotate(59.4)" rx="1.53" ry="0.46"/>
</svg>
